<?xml version="1.0" encoding="UTF-8" standalone="no"?>
<!DOCTYPE svg PUBLIC "-//W3C//DTD SVG 1.1//EN" "http://www.w3.org/Graphics/SVG/1.1/DTD/svg11.dtd">
<svg version="1.1" xmlns="http://www.w3.org/2000/svg" xmlns:xlink="http://www.w3.org/1999/xlink" preserveAspectRatio="xMidYMid meet" viewBox="0 0 640 640" width="640" height="640"><defs><path d="M376.31 103.47C383.73 103.47 389.75 109.49 389.75 116.92C389.75 144.23 389.75 212.72 389.75 240.03C389.75 247.45 383.73 253.47 376.31 253.47C319 253.47 160.51 253.47 103.2 253.47C95.78 253.47 89.75 247.45 89.75 240.03C89.75 212.72 89.75 144.23 89.75 116.92C89.75 109.49 95.78 103.47 103.2 103.47C160.51 103.47 319 103.47 376.31 103.47Z" id="aeSERqd1R"></path></defs><g><g><g><g><filter id="shadow156733" x="72.75" y="86.47" width="341" height="193" filterUnits="userSpaceOnUse" primitiveUnits="userSpaceOnUse"><feFlood></feFlood><feComposite in2="SourceAlpha" operator="in"></feComposite><feGaussianBlur stdDeviation="1"></feGaussianBlur><feOffset dx="7" dy="9" result="afterOffset"></feOffset><feFlood flood-color="#000000" flood-opacity="0.5"></feFlood><feComposite in2="afterOffset" operator="in"></feComposite><feMorphology operator="dilate" radius="1"></feMorphology><feComposite in2="SourceAlpha" operator="out"></feComposite></filter><path d="M376.31 103.47C383.73 103.47 389.75 109.49 389.75 116.92C389.75 144.23 389.75 212.72 389.75 240.03C389.75 247.45 383.73 253.47 376.31 253.47C319 253.47 160.51 253.47 103.2 253.47C95.78 253.47 89.75 247.45 89.75 240.03C89.75 212.72 89.75 144.23 89.75 116.92C89.75 109.49 95.78 103.47 103.2 103.47C160.51 103.47 319 103.47 376.31 103.47Z" id="ijFllNNUk" fill="white" fill-opacity="1" filter="url(#shadow156733)"></path></g><use xlink:href="#aeSERqd1R" opacity="1" fill="#37c5ce" fill-opacity="1"></use></g></g></g></svg>